<svg width="28" height="28" viewBox="0 0 28 28" fill="none" xmlns="http://www.w3.org/2000/svg">
<path d="M28 7C28 3.13401 24.866 0 21 0H7C3.13401 0 0 3.13401 0 7V21C0 24.866 3.13401 28 7 28H21C24.866 28 28 24.866 28 21V7ZM11.3408 21.2745C10.8225 20.8371 10.7542 20.0635 11.1879 19.5421L13.3393 16.9557C14.7641 15.2428 14.7641 12.7572 13.3393 11.0443L11.1879 8.45794C10.7542 7.93654 10.8225 7.16286 11.3408 6.72551C11.8643 6.28385 12.6473 6.3529 13.0853 6.87935L15.9698 10.3458C17.7318 12.4633 17.7318 15.5367 15.9698 17.6542L13.0853 21.1206C12.6473 21.6471 11.8643 21.7162 11.3408 21.2745Z" fill="white"/>
</svg>
