<svg width="11" height="8" viewBox="0 0 11 8" fill="none" xmlns="http://www.w3.org/2000/svg">
<g id="Group">
<g id="Group_2">
<path id="Vector" d="M9.87681 0H1.12315C0.509472 0 0 0.509472 0 1.12315V5.93998C0 6.55366 0.509472 7.06313 1.12315 7.06313H9.87681C10.4905 7.06313 11 6.55366 11 5.93998V1.12315C11 0.497893 10.4905 0 9.87681 0ZM3.1842 1.47052C3.72841 1.47052 4.17999 1.91052 4.17999 2.46631C4.17999 3.01052 3.73999 3.46209 3.1842 3.46209C2.62841 3.46209 2.18841 3.0221 2.18841 2.46631C2.18841 1.9221 2.62841 1.47052 3.1842 1.47052ZM1.63263 5.14104C1.63263 4.45788 1.88736 3.85578 2.28105 3.48525C2.5242 3.69367 2.83683 3.83262 3.1842 3.83262C3.53157 3.83262 3.8442 3.70525 4.08735 3.48525C4.48104 3.85578 4.73577 4.45788 4.73577 5.14104C4.7242 5.74314 1.63263 5.74314 1.63263 5.14104ZM9.1705 5.51156H6.13682C5.9863 5.51156 5.85893 5.38419 5.85893 5.23367C5.85893 5.08314 5.9863 4.95577 6.13682 4.95577H9.1705C9.32102 4.95577 9.44839 5.08314 9.44839 5.23367C9.44839 5.38419 9.3326 5.51156 9.1705 5.51156ZM9.1705 3.80946H6.13682C5.9863 3.80946 5.85893 3.68209 5.85893 3.53157C5.85893 3.38104 5.9863 3.25367 6.13682 3.25367H9.1705C9.32102 3.25367 9.44839 3.38104 9.44839 3.53157C9.44839 3.68209 9.3326 3.80946 9.1705 3.80946ZM9.1705 2.11894H6.13682C5.9863 2.11894 5.85893 1.99157 5.85893 1.84105C5.85893 1.69052 5.9863 1.56315 6.13682 1.56315H9.1705C9.32102 1.56315 9.44839 1.69052 9.44839 1.84105C9.44839 1.99157 9.3326 2.11894 9.1705 2.11894Z" fill="#125878"/>
</g>
</g>
</svg>
