<svg width="24" height="31" viewBox="0 0 24 31" fill="none" xmlns="http://www.w3.org/2000/svg">
<path d="M21 10.3333H19.5V7.38095C19.5 3.29683 16.15 0 12 0C7.85 0 4.5 3.29683 4.5 7.38095V10.3333H3C1.35 10.3333 0 11.6619 0 13.2857V28.0476C0 29.6714 1.35 31 3 31H21C22.65 31 24 29.6714 24 28.0476V13.2857C24 11.6619 22.65 10.3333 21 10.3333ZM7.35 7.38095C7.35 4.87143 9.45 2.80476 12 2.80476C14.55 2.80476 16.65 4.87143 16.65 7.38095V10.3333H7.35V7.38095ZM3.65 20.519H5.9C5.9 17.2222 8.6 14.5651 11.95 14.5651C13.15 14.5651 14.25 14.9095 15.15 15.5L14.05 16.5825C13.4 16.2381 12.7 16.0413 11.95 16.0413C9.45 16.0413 7.4 18.0587 7.4 20.519H9.65L6.6 23.5206L3.65 20.519ZM18.05 20.519C18.05 23.8159 15.35 26.473 12 26.473C10.8 26.473 9.7 26.1286 8.8 25.5381L9.9 24.4556C10.55 24.8 11.25 24.9968 12 24.9968C14.5 24.9968 16.55 22.9794 16.55 20.519H14.3L17.35 17.5175L20.4 20.519H18.05Z" fill="#1BA3EB"/>
</svg>
