<svg width="14" height="16" viewBox="0 0 14 16" fill="none" xmlns="http://www.w3.org/2000/svg">
<path d="M9.96841 7.45932C9.52691 8.17965 8.73687 8.62115 7.90035 8.62115C7.71446 8.62115 7.50533 8.62115 7.27297 8.62115C8.10948 9.62032 8.89953 10.9448 8.89953 12.1066C8.89953 14.7091 6.90118 15.9174 4.46134 15.9174C2.0215 15.9174 -8.58307e-05 14.6859 -8.58307e-05 12.1066C-8.58307e-05 10.6195 1.13851 9.01617 2.30034 7.92405C2.18415 7.76139 2.11444 7.55226 2.11444 7.34313C2.11444 7.11077 2.18415 6.8784 2.32357 6.71575C2.06797 6.52985 1.90531 6.22778 1.90531 5.87923C1.90531 5.64686 1.97502 5.43773 2.09121 5.27508C1.8356 5.08919 1.64971 4.76387 1.64971 4.41532C1.64971 4.06678 1.81237 3.7647 2.09121 3.55557C1.90531 3.29997 1.8356 2.97466 1.95179 2.62611C2.04473 2.3008 2.30034 2.06843 2.62565 1.95225C2.32357 1.65017 1.81237 1.06926 1.81237 0.650998C1.81237 0.163029 5.8323 -0.394649 5.6464 0.395395C5.57669 0.674234 5.46051 0.929837 5.32109 1.13897L6.50616 0.953073C7.27297 0.860127 8.03977 1.09249 8.62069 1.6037L10.0614 2.88171H10.8746V2.69582C10.8746 2.41698 11.107 2.18461 11.3858 2.18461H13.3145C13.5933 2.18461 13.8257 2.41698 13.8257 2.69582V7.50579C13.8257 7.78463 13.5933 8.017 13.3145 8.017H11.3858C11.107 8.017 10.8746 7.78463 10.8746 7.50579V7.3199H10.0614L9.96841 7.45932ZM12.3618 7.13401C12.6406 7.13401 12.873 6.90164 12.873 6.6228C12.873 6.34396 12.6406 6.1116 12.3618 6.1116C12.0829 6.1116 11.8506 6.34396 11.8506 6.6228C11.8506 6.90164 12.0829 7.13401 12.3618 7.13401ZM4.01984 13.8494V14.2909C4.01984 14.3606 4.06632 14.4071 4.13603 14.4071H4.71694C4.78665 14.4071 4.83312 14.3606 4.83312 14.2909V13.8726C5.36757 13.7564 5.80906 13.3149 5.85553 12.7573C5.85553 12.6875 5.80906 12.6178 5.73935 12.6178H5.1352C5.08873 12.6178 5.01902 12.6643 5.01902 12.7108C4.97254 12.9199 4.80989 13.0593 4.60076 13.0593H4.25221C4.01984 13.0593 3.81071 12.8734 3.81071 12.6178C3.81071 12.3855 3.99661 12.1763 4.25221 12.1763H4.55429C5.22815 12.1763 5.80906 11.6884 5.87877 11.0145C5.94848 10.3407 5.48375 9.75974 4.85636 9.64356V9.20206C4.85636 9.13235 4.80989 9.08588 4.74018 9.08588H4.15926C4.08955 9.08588 4.04308 9.13235 4.04308 9.20206V9.64356C3.50864 9.75974 3.06714 10.2012 3.02067 10.7589C3.02067 10.8286 3.06714 10.8983 3.13685 10.8983H3.71777C3.76424 10.8983 3.83395 10.8519 3.83395 10.8054C3.88042 10.5963 4.04308 10.4568 4.25221 10.4568H4.60076C4.83312 10.4568 5.04225 10.6427 5.04225 10.8983C5.04225 11.1307 4.85636 11.3398 4.60076 11.3398H4.25221C3.50864 11.3398 2.90449 11.9905 2.9742 12.7573C3.04391 13.3149 3.4854 13.7332 4.01984 13.8494ZM3.16009 7.71492H4.29868C4.50781 7.71492 4.6937 7.52903 4.6937 7.3199C4.6937 7.08753 4.50781 6.92488 4.29868 6.92488H3.16009C2.92772 6.92488 2.76507 7.11077 2.76507 7.3199C2.76507 7.55226 2.92772 7.71492 3.16009 7.71492ZM2.95096 6.25101H4.50781C4.74018 6.25101 4.90283 6.06512 4.90283 5.85599C4.90283 5.62363 4.71694 5.46097 4.50781 5.46097H2.95096C2.74183 5.46097 2.55594 5.64686 2.55594 5.85599C2.55594 6.08836 2.71859 6.25101 2.95096 6.25101ZM3.78748 2.53316H2.95096C2.74183 2.53316 2.55594 2.71905 2.55594 2.92818C2.55594 3.13731 2.74183 3.3232 2.95096 3.3232H3.78748L3.76424 2.64934C3.76424 2.62611 3.78748 2.57963 3.78748 2.53316ZM3.81071 4.36885V3.99707H2.71859C2.50947 3.99707 2.32357 4.18296 2.32357 4.39209C2.32357 4.60122 2.50947 4.78711 2.71859 4.78711H3.9269C3.85719 4.67093 3.81071 4.53151 3.81071 4.36885ZM10.8746 3.55557H9.92194C9.85223 3.55557 9.75928 3.53233 9.68957 3.46262L8.15596 2.1149C7.71446 1.71988 7.13355 1.55722 6.57587 1.62693L5.1352 1.81283C4.71694 1.8593 4.41487 2.23109 4.41487 2.64934L4.46134 4.36885C4.46134 4.57798 4.64723 4.74064 4.85636 4.74064C4.97254 4.74064 5.06549 4.69416 5.1352 4.62445C5.20491 4.55474 5.25138 4.43856 5.25138 4.34561L5.20491 3.16055C5.20491 2.99789 5.32109 2.83524 5.48375 2.812L6.22732 2.69582C6.41321 2.67258 6.57587 2.78876 6.59911 2.97466C6.62234 3.16055 6.50616 3.3232 6.32027 3.34644L5.94848 3.39291C6.50616 4.57798 7.64475 4.48503 7.69122 4.48503C7.87712 4.4618 8.03977 4.60122 8.06301 4.78711V4.83358C8.06301 4.99624 7.94683 5.13566 7.76093 5.1589C7.2962 5.20537 6.50616 5.06595 5.90201 4.48503C5.87877 4.7174 5.78582 4.92653 5.62317 5.08919C5.55346 5.1589 5.46051 5.22861 5.36757 5.27508C5.48375 5.43773 5.55346 5.64686 5.55346 5.85599C5.55346 6.06512 5.48375 6.22778 5.3908 6.39043C5.50699 6.73898 5.71611 7.15724 6.18085 7.52903C6.32027 7.64521 6.45969 7.76139 6.59911 7.90081C7.06384 7.92405 7.50533 7.92405 7.85388 7.92405C8.48127 7.92405 9.03895 7.59874 9.36426 7.0643L9.55015 6.76222C9.61986 6.66927 9.71281 6.59956 9.82899 6.59956H10.8282V3.55557H10.8746Z" fill="white"/>
</svg>
