<svg width="37" height="34" viewBox="0 0 37 34" fill="none" xmlns="http://www.w3.org/2000/svg">
<path d="M26.6773 15.9333C25.4958 17.4719 23.3815 18.415 21.1429 18.415C20.6454 18.415 20.0857 18.415 19.4639 18.415C21.7025 20.5492 23.8168 23.3784 23.8168 25.86C23.8168 31.419 18.4689 34 11.9395 34C5.41008 34 0 31.3694 0 25.86C0 22.6835 3.04706 19.2587 6.1563 16.9259C5.84538 16.5785 5.65882 16.1318 5.65882 15.6851C5.65882 15.1888 5.84538 14.6924 6.21849 14.345C5.53445 13.9479 5.09916 13.3027 5.09916 12.5582C5.09916 12.0618 5.28571 11.6151 5.59664 11.2677C4.91261 10.8706 4.41512 10.1757 4.41512 9.43123C4.41512 8.68673 4.85042 8.04148 5.59664 7.59478C5.09916 7.04881 4.91261 6.35393 5.22353 5.60943C5.47227 4.91455 6.1563 4.41821 7.02689 4.17004C6.21849 3.5248 4.85042 2.28396 4.85042 1.39055C4.85042 0.348234 15.6084 -0.842979 15.1109 0.844573C14.9244 1.44018 14.6134 1.98615 14.2403 2.43286L17.4118 2.03579C19.4639 1.83725 21.516 2.33359 23.0706 3.42553L26.926 6.1554H29.1025V5.75833C29.1025 5.16272 29.7244 4.66638 30.4706 4.66638H35.6319C36.3782 4.66638 37 5.16272 37 5.75833V16.0325C37 16.6281 36.3782 17.1245 35.6319 17.1245H30.4706C29.7244 17.1245 29.1025 16.6281 29.1025 16.0325V15.6355H26.926L26.6773 15.9333ZM33.0824 15.2384C33.8286 15.2384 34.4504 14.7421 34.4504 14.1465C34.4504 13.5508 33.8286 13.0545 33.0824 13.0545C32.3361 13.0545 31.7143 13.5508 31.7143 14.1465C31.7143 14.7421 32.3361 15.2384 33.0824 15.2384ZM10.758 29.5826V30.5256C10.758 30.6745 10.8824 30.7738 11.0689 30.7738H12.6235C12.8101 30.7738 12.9345 30.6745 12.9345 30.5256V29.6322C14.3647 29.3841 15.5462 28.441 15.6706 27.2498C15.6706 27.1009 15.5462 26.952 15.3597 26.952H13.7429C13.6185 26.952 13.4319 27.0513 13.4319 27.1505C13.3076 27.5972 12.8723 27.895 12.3126 27.895H11.3798C10.758 27.895 10.1983 27.498 10.1983 26.952C10.1983 26.4557 10.6958 26.0089 11.3798 26.0089H12.1882C13.9916 26.0089 15.5462 24.9666 15.7328 23.5273C15.9193 22.0879 14.6756 20.847 12.9966 20.5989V19.6558C12.9966 19.5069 12.8723 19.4076 12.6857 19.4076H11.1311C10.9445 19.4076 10.8202 19.5069 10.8202 19.6558V20.5989C9.38992 20.847 8.2084 21.7901 8.08403 22.9813C8.08403 23.1302 8.2084 23.2791 8.39496 23.2791H9.94958C10.0739 23.2791 10.2605 23.1798 10.2605 23.0805C10.3849 22.6338 10.8202 22.336 11.3798 22.336H12.3126C12.9345 22.336 13.4941 22.7331 13.4941 23.2791C13.4941 23.7754 12.9966 24.2221 12.3126 24.2221H11.3798C9.38991 24.2221 7.77311 25.6119 7.95966 27.2498C8.14622 28.441 9.32773 29.3344 10.758 29.5826ZM8.45714 16.4792H11.5042C12.0639 16.4792 12.5613 16.0822 12.5613 15.6355C12.5613 15.1391 12.0639 14.7917 11.5042 14.7917H8.45714C7.83529 14.7917 7.4 15.1888 7.4 15.6355C7.4 16.1318 7.83529 16.4792 8.45714 16.4792ZM7.89748 13.3523H12.0639C12.6857 13.3523 13.121 12.9552 13.121 12.5085C13.121 12.0122 12.6235 11.6648 12.0639 11.6648H7.89748C7.33781 11.6648 6.84034 12.0618 6.84034 12.5085C6.84034 13.0049 7.27563 13.3523 7.89748 13.3523ZM10.1361 5.41089H7.89748C7.33781 5.41089 6.84034 5.80796 6.84034 6.25467C6.84034 6.70137 7.33781 7.09844 7.89748 7.09844H10.1361L10.0739 5.65906C10.0739 5.60943 10.1361 5.51016 10.1361 5.41089ZM10.1983 9.33197V8.53782H7.27563C6.71597 8.53782 6.21849 8.93489 6.21849 9.3816C6.21849 9.8283 6.71597 10.2254 7.27563 10.2254H10.5092C10.3227 9.97721 10.1983 9.6794 10.1983 9.33197ZM29.1025 7.59478H26.5529C26.3664 7.59478 26.1176 7.54515 25.9311 7.39624L21.8269 4.51748C20.6454 3.6737 19.0908 3.32627 17.5983 3.47517L13.7429 3.87224C12.6235 3.97151 11.8151 4.76565 11.8151 5.65906L11.9395 9.33197C11.9395 9.77867 12.437 10.1261 12.9966 10.1261C13.3076 10.1261 13.5563 10.0268 13.7429 9.87794C13.9294 9.72904 14.0538 9.48087 14.0538 9.28233L13.9294 6.751C13.9294 6.40357 14.2403 6.05613 14.6756 6.0065L16.6655 5.75833C17.163 5.70869 17.5983 5.95686 17.6605 6.35393C17.7227 6.751 17.4118 7.09844 16.9143 7.14808L15.9193 7.24734C17.4118 9.77867 20.4588 9.58013 20.5832 9.58013C21.0807 9.5305 21.516 9.8283 21.5782 10.2254V10.3246C21.5782 10.6721 21.2672 10.9699 20.7697 11.0195C19.5261 11.1188 17.4118 10.821 15.795 9.58013C15.7328 10.0765 15.484 10.5232 15.0487 10.8706C14.8622 11.0195 14.6134 11.1684 14.3647 11.2677C14.6756 11.6151 14.8622 12.0618 14.8622 12.5085C14.8622 12.9552 14.6756 13.3027 14.4269 13.6501C14.7378 14.3946 15.2975 15.288 16.5412 16.0822C16.9143 16.3303 17.2874 16.5785 17.6605 16.8763C18.9042 16.9259 20.0857 16.9259 21.0185 16.9259C22.6975 16.9259 24.1899 16.2311 25.0605 15.0895L25.558 14.4443C25.7445 14.2457 25.9933 14.0968 26.3042 14.0968H28.9782V7.59478H29.1025Z" fill="#509F6D"/>
</svg>
