<svg width="35" height="38" viewBox="0 0 35 38" fill="none" xmlns="http://www.w3.org/2000/svg">
<path d="M12.2979 8.04152C14.3979 7.70822 15.8241 5.77296 15.4833 3.71901C15.1425 1.66505 13.1638 0.270193 11.0638 0.603498C8.96368 0.936803 7.5375 2.87206 7.87829 4.92601C8.21908 6.97997 10.1978 8.37483 12.2979 8.04152Z" fill="#9F5050"/>
<path d="M11.7009 25.8664L12.2123 31.4905H15.4107L15.5792 23.4608L15.591 15.7458L21.7011 16.3472C22.2731 16.4161 22.8543 16.3619 23.4008 16.1885L24.5004 15.9017V15.459C23.2364 14.9005 22.1228 14.0801 21.2429 13.059L16.8237 11.1045C15.943 10.7797 15.0055 10.6135 14.0598 10.6145H9.05523C8.49178 10.6137 7.93427 10.7229 7.41786 10.9351C6.90146 11.1474 6.43737 11.4582 6.05486 11.8479L0.538935 16.2636C0.356704 16.4503 0.215458 16.6691 0.12332 16.9073C0.0311819 17.1456 -0.0100283 17.3987 0.00205962 17.652C0.0141476 17.9053 0.0792952 18.1539 0.193755 18.3834C0.308214 18.6129 0.469727 18.8189 0.669 18.9894L7.06879 23.4608L7.34666 36.7972C7.35323 37.1095 7.48595 37.4076 7.71779 37.6309C7.94963 37.8542 8.26314 37.9858 8.59442 37.9989C8.92571 38.0121 9.24985 37.9057 9.50079 37.7016C9.75173 37.4974 9.91059 37.2109 9.945 36.9002L10.9441 25.8664C10.9521 25.777 10.9954 25.6937 11.0654 25.633C11.1355 25.5723 11.2273 25.5386 11.3225 25.5386C11.4177 25.5386 11.5095 25.5723 11.5796 25.633C11.6496 25.6937 11.6929 25.777 11.7009 25.8664ZM7.26684 20.3982L4.03295 17.8145L7.26684 15.7458V20.3982Z" fill="#9F5050"/>
<path d="M28.1517 0.34488C26.4408 0.344159 24.7915 0.94204 23.5283 2.02089C22.2652 3.09974 21.4797 4.58144 21.3263 6.17446C21.173 7.76749 21.6629 9.35649 22.6997 10.6288C23.7365 11.9012 25.2451 12.7647 26.9287 13.0496V28.7815C26.9287 29.5488 26.7671 30.3086 26.453 31.0174C26.1389 31.7263 25.6785 32.3704 25.0981 32.913C24.5178 33.4556 23.8287 33.8859 23.0705 34.1796C22.3122 34.4732 21.4994 34.6243 20.6787 34.6243H15.9413V34.1014C15.9413 33.9501 15.877 33.805 15.7625 33.698C15.6481 33.591 15.4928 33.5309 15.331 33.5309H11.1098C11.0297 33.5309 10.9503 33.5457 10.8763 33.5743C10.8022 33.603 10.7349 33.645 10.6783 33.698C10.6216 33.751 10.5766 33.8139 10.546 33.8831C10.5153 33.9523 10.4995 34.0265 10.4995 34.1014V37.4295C10.4995 37.5808 10.5638 37.7259 10.6783 37.8329C10.7927 37.9399 10.9479 38 11.1098 38H15.331C15.4928 38 15.648 37.9399 15.7625 37.8329C15.8769 37.7259 15.9412 37.5808 15.9412 37.4295V36.9064H20.6785C22.9836 36.9064 25.1943 36.0504 26.8242 34.5266C28.4542 33.0029 29.3699 30.9363 29.3699 28.7814V13.0502C31.0531 12.7654 32.5614 11.9021 33.5982 10.6302C34.635 9.35833 35.1253 7.76982 34.9726 6.17708C34.8199 4.58435 34.0353 3.10265 32.773 2.02338C31.5108 0.944107 29.8623 0.345358 28.1517 0.34488ZM30.5147 9.37466C30.3112 9.76374 30.0047 10.0977 29.6241 10.3447C29.4028 10.489 29.1589 10.6005 28.901 10.675V10.7495C28.9013 10.8465 28.8811 10.9425 28.8417 11.0322C28.8022 11.1219 28.7441 11.2034 28.6709 11.272C28.5976 11.3407 28.5106 11.3952 28.4148 11.4324C28.319 11.4695 28.2163 11.4887 28.1126 11.4887C28.0088 11.4887 27.9061 11.4695 27.8103 11.4324C27.7145 11.3952 27.6275 11.3407 27.5543 11.272C27.481 11.2034 27.423 11.1219 27.3835 11.0322C27.344 10.9425 27.3238 10.8465 27.3241 10.7495V10.675C27.0853 10.6074 26.8582 10.5077 26.65 10.3791C26.2654 10.1453 25.9522 9.82223 25.7411 9.44148C25.5504 9.09539 25.3884 8.70016 25.6696 8.34733C25.7435 8.25506 25.8394 8.18023 25.9497 8.12884C26.06 8.07744 26.1816 8.05091 26.3049 8.05136C26.4736 8.05256 26.6376 8.10363 26.7733 8.19727C26.9091 8.29092 27.0097 8.42232 27.0606 8.57266C27.1352 8.81376 27.302 9.02083 27.5292 9.15449C27.7565 9.28815 28.0283 9.33907 28.2931 9.29758C28.5579 9.25609 28.7972 9.12507 28.9654 8.92945C29.1336 8.73383 29.219 8.48724 29.2054 8.23657C29.1951 8.07833 29.1455 7.9245 29.0606 7.78726C28.9757 7.65002 28.8578 7.53314 28.7162 7.44586C28.2747 7.17049 27.6748 7.28034 27.1913 7.09469C26.7321 6.91958 26.3411 6.61757 26.0705 6.22906C25.7998 5.84054 25.6626 5.38405 25.677 4.92062C25.6915 4.4572 25.8569 4.00894 26.1513 3.63581C26.4456 3.26268 26.8548 2.98247 27.3241 2.83264V2.74673C27.3241 2.55124 27.4072 2.36377 27.5551 2.22554C27.7029 2.08731 27.9035 2.00966 28.1126 2.00966C28.3217 2.00966 28.5222 2.08731 28.6701 2.22554C28.818 2.36377 28.901 2.55124 28.901 2.74673V2.83458C29.1537 2.91574 29.3903 3.03507 29.6017 3.18783C29.9822 3.46157 30.2667 3.83523 30.4187 4.26099C30.4207 4.26458 30.4221 4.26844 30.4228 4.27243C30.4494 4.4106 30.4524 4.55184 30.4317 4.69089C30.3913 4.81709 30.3159 4.93105 30.2132 5.02121C30.1104 5.11137 29.984 5.17452 29.8468 5.20427C29.6576 5.24809 29.4578 5.22394 29.2869 5.1366C29.1159 5.04926 28.9862 4.90509 28.9235 4.73263C28.8673 4.57271 28.7584 4.43353 28.6124 4.33507C28.4663 4.23662 28.2906 4.18393 28.1106 4.18459C27.8925 4.18327 27.6822 4.2601 27.5229 4.39928C27.3636 4.53846 27.2674 4.72941 27.2541 4.93287C27.2407 5.13633 27.3113 5.33683 27.4512 5.49315C27.5912 5.64948 27.7898 5.74974 28.0064 5.77332C28.5256 5.77048 29.0359 5.89915 29.4832 6.14567C29.98 6.42643 30.3673 6.84875 30.5882 7.35057C30.7266 7.67431 30.7915 8.02141 30.7789 8.36984C30.7662 8.71828 30.6763 9.06044 30.5147 9.37466Z" fill="#9F5050"/>
</svg>
