<svg width="28" height="23" viewBox="0 0 28 23" fill="none" xmlns="http://www.w3.org/2000/svg">
<path d="M22.4852 6.0956C21.4213 6.0956 20.5588 5.2331 20.5588 4.16914C20.5588 3.10518 21.4213 2.24268 22.4852 2.24268C23.5492 2.24268 24.4117 3.10518 24.4117 4.16914C24.4117 5.2331 23.5492 6.0956 22.4852 6.0956Z" fill="#59B179"/>
<path d="M16.9646 9.66104L18.5172 9.14348L19.7824 7.59081C20.2424 7.0445 20.9038 6.69946 21.6226 6.69946H23.319C25.3318 6.72822 26.8269 10.1498 27.2582 11.185C27.4307 11.645 27.2295 12.1338 26.7694 12.3063C26.6544 12.3351 26.5681 12.3638 26.4531 12.3638C26.1081 12.3638 25.7918 12.1626 25.648 11.8175C25.303 10.9262 24.8142 10.0348 24.3541 9.40226L24.4692 12.7951L25.8206 19.2071C25.9356 19.7247 25.5905 20.2422 25.073 20.3572C25.0155 20.386 24.9292 20.386 24.8717 20.386C24.4116 20.386 24.0379 20.0697 23.9228 19.6096L22.5714 13.2839H22.1977V19.3796C22.1977 19.9259 21.7664 20.3572 21.22 20.3572C20.6737 20.3572 20.2424 19.9259 20.2424 19.3796V12.8814L20.3575 9.60353L19.6674 10.4374C19.5524 10.5811 19.4086 10.6674 19.2648 10.7249L17.4534 11.3C16.9933 11.4437 16.5045 11.185 16.3608 10.7537C16.2457 10.2936 16.5045 9.80481 16.9646 9.66104Z" fill="#59B179"/>
<path d="M3.30679 14.5491C5.14699 14.5491 6.6134 13.0539 6.6134 11.2425C6.6134 9.43101 5.14699 7.90709 3.30679 7.90709C1.46658 7.90709 0.000170708 9.40225 0.000170708 11.2137C0.000170708 13.0252 1.49534 14.5491 3.30679 14.5491ZM3.47931 11.5587H3.16302C2.53045 11.5587 2.01289 10.9837 2.09915 10.3224C2.15666 9.83355 2.53045 9.48851 2.9905 9.40225V8.9422C2.9905 8.91345 3.01925 8.85594 3.07676 8.85594H3.56557C3.59432 8.85594 3.65182 8.88469 3.65182 8.9422V9.40225C4.14063 9.48851 4.51442 9.89106 4.57193 10.3799C4.57193 10.4374 4.54317 10.4661 4.48567 10.4661H3.99686C3.96811 10.4661 3.93936 10.4374 3.9106 10.4086C3.88185 10.2073 3.70933 10.0348 3.47931 10.0348H3.19177C2.96175 10.0348 2.76048 10.2073 2.73172 10.4086C2.70297 10.6674 2.90424 10.8687 3.16302 10.8687H3.4218C3.96811 10.8687 4.45692 11.2712 4.54317 11.8175C4.62943 12.4213 4.19813 12.9389 3.65182 13.0252V13.4852C3.65182 13.514 3.62307 13.5715 3.56557 13.5715H3.07676C3.04801 13.5715 2.9905 13.5427 2.9905 13.4852V13.0252C2.5017 12.9389 2.12791 12.5363 2.0704 12.0475C2.0704 11.99 2.09915 11.9613 2.15666 11.9613H2.64546C2.67422 11.9613 2.70297 11.99 2.73172 12.0188C2.76048 12.2201 2.933 12.3926 3.16302 12.3926H3.45055C3.68058 12.3926 3.88185 12.2201 3.9106 12.0188C3.93936 11.7888 3.70933 11.5587 3.47931 11.5587Z" fill="#59B179"/>
<path d="M3.30679 15.9581C1.46658 15.9581 0.000170708 17.4533 0.000170708 19.2647C0.000170708 21.0762 1.49534 22.6001 3.30679 22.6001C5.14699 22.6001 6.6134 21.1049 6.6134 19.2935C6.6134 17.482 5.14699 15.9581 3.30679 15.9581ZM3.65182 21.1049V21.565C3.65182 21.5937 3.62307 21.6512 3.56557 21.6512H3.07676C3.04801 21.6512 2.9905 21.6225 2.9905 21.565V21.1049C2.5017 21.0187 2.12791 20.6161 2.0704 20.1273C2.0704 20.0698 2.09915 20.0411 2.15666 20.0411H2.64546C2.67422 20.0411 2.70297 20.0698 2.73172 20.0986C2.76048 20.2998 2.933 20.4724 3.16302 20.4724H3.45055C3.68058 20.4724 3.88185 20.2998 3.9106 20.0986C3.93936 19.8398 3.73808 19.6385 3.47931 19.6385H3.16302C2.53045 19.6385 2.01289 19.0635 2.09915 18.4021C2.15666 17.9421 2.53045 17.5683 2.9905 17.482V17.022C2.9905 16.9932 3.01925 16.9357 3.07676 16.9357H3.56557C3.59432 16.9357 3.65182 16.9645 3.65182 17.022V17.482C4.14063 17.5683 4.51442 17.9708 4.57193 18.4596C4.57193 18.4884 4.54317 18.5459 4.48567 18.5459H3.99686C3.96811 18.5459 3.93936 18.5171 3.9106 18.4884C3.88185 18.2871 3.70933 18.1146 3.47931 18.1146H3.19177C2.96175 18.1146 2.76048 18.2871 2.73172 18.4884C2.70297 18.7472 2.90424 18.9484 3.16302 18.9484H3.4218C3.96811 18.9484 4.45692 19.351 4.54317 19.8973C4.62943 20.5011 4.19813 21.0187 3.65182 21.1049Z" fill="#59B179"/>
<path d="M3.30679 6.64209C5.14699 6.64209 6.6134 5.14692 6.6134 3.33547C6.6134 1.52402 5.14699 0.00010252 3.30679 0.00010252C1.46658 0.00010252 0.000170708 1.49527 0.000170708 3.30672C0.000170708 5.11817 1.49534 6.64209 3.30679 6.64209ZM3.47931 3.65176H3.16302C2.53045 3.65176 2.01289 3.07669 2.09915 2.41537C2.15666 1.92657 2.53045 1.58153 2.9905 1.49527V1.03522C2.9905 1.00647 3.01925 0.948958 3.07676 0.948958H3.56557C3.59432 0.948958 3.65182 0.977712 3.65182 1.03522V1.49527C4.14063 1.58153 4.51442 1.98407 4.57193 2.47288C4.57193 2.53038 4.54317 2.55914 4.48567 2.55914H3.99686C3.96811 2.55914 3.93936 2.53038 3.9106 2.50163C3.88185 2.30036 3.70933 2.12784 3.47931 2.12784H3.19177C2.96175 2.12784 2.76048 2.30036 2.73172 2.50163C2.70297 2.76041 2.90424 2.96168 3.16302 2.96168H3.4218C3.96811 2.96168 4.45692 3.36423 4.54317 3.91054C4.62943 4.51435 4.19813 5.03191 3.65182 5.11817V5.57822C3.65182 5.60697 3.62307 5.66448 3.56557 5.66448H3.07676C3.04801 5.66448 2.9905 5.63573 2.9905 5.57822V5.11817C2.5017 5.03191 2.12791 4.62937 2.0704 4.14056C2.0704 4.08306 2.09915 4.0543 2.15666 4.0543H2.64546C2.67422 4.0543 2.70297 4.08306 2.73172 4.11181C2.76048 4.31308 2.933 4.4856 3.16302 4.4856H3.45055C3.68058 4.4856 3.88185 4.31308 3.9106 4.11181C3.93936 3.85303 3.70933 3.65176 3.47931 3.65176Z" fill="#59B179"/>
<path d="M10.0926 5.06052C10.0351 5.08927 9.97756 5.08927 9.92005 5.08927C9.83379 5.08927 9.74753 5.06052 9.69003 5.00301L7.82107 3.62286C7.70606 3.5366 7.64855 3.42158 7.64855 3.30657C7.64855 3.19156 7.70606 3.04779 7.82107 2.99029L9.69003 1.61013C9.80504 1.52387 9.97756 1.49512 10.1213 1.58138C10.2651 1.63889 10.3513 1.78265 10.3513 1.92642V2.76026H12.9679C14.1755 2.76026 15.1819 3.76662 15.1819 4.97426V17.6257C15.1819 18.8333 14.1755 19.8397 12.9679 19.8397H10.3513V20.6735C10.3513 20.8173 10.2651 20.961 10.1213 21.0185C10.0638 21.0473 10.0063 21.0473 9.9488 21.0473C9.86254 21.0473 9.77629 21.0185 9.71878 20.961L7.84982 19.5809C7.73481 19.4946 7.6773 19.3796 7.6773 19.2646C7.6773 19.1496 7.73481 19.0058 7.84982 18.9483L9.71878 17.5682C9.83379 17.4819 10.0063 17.4531 10.1501 17.5394C10.2938 17.5969 10.3801 17.7407 10.3801 17.8844V18.7183H12.9966C13.6005 18.7183 14.0893 18.2295 14.0893 17.6257V11.9325H10.3801V12.7376C10.3801 12.8814 10.2938 13.0251 10.1501 13.0827C10.0926 13.1114 10.0351 13.1114 9.97756 13.1114C9.8913 13.1114 9.80504 13.0827 9.74753 13.0251L7.87858 11.645C7.76356 11.5587 7.70606 11.4437 7.70606 11.3287C7.70606 11.2137 7.76356 11.0699 7.87858 11.0124L9.74753 9.63227C9.86255 9.54601 10.0351 9.51726 10.1788 9.60352C10.3226 9.66102 10.4089 9.80479 10.4089 9.94856V10.7824H14.0318V4.97426C14.0318 4.37044 13.543 3.88163 12.9391 3.88163H10.3226V4.68672C10.3226 4.85924 10.2363 4.97426 10.0926 5.06052Z" fill="#59B179"/>
</svg>
