<svg width="36" height="24" viewBox="0 0 36 24" fill="none" xmlns="http://www.w3.org/2000/svg">
<g id="Group">
<path id="Vector" d="M9.04155 6.30011H12.9408C13.2975 5.77572 13.772 5.28985 14.3021 4.90597C14.9144 4.46168 15.613 4.14346 16.3033 4.04673L16.3664 4.04191C17.3118 4.01039 18.3269 4.1277 19.3131 4.37589C20.28 4.61926 21.2325 4.99395 22.0773 5.4807L22.4537 5.69781L22.364 6.12021C22.2743 6.54611 22.0134 6.88578 21.6772 7.11996C21.3301 7.36246 20.8941 7.49509 20.4901 7.49509H13.5396C13.1255 7.50034 12.7582 7.66799 12.4917 7.93368C12.2216 8.20551 12.0535 8.5802 12.0535 8.99078C12.0535 9.40136 12.222 9.77517 12.4934 10.0461C12.7644 10.3175 13.1395 10.4865 13.5492 10.4865H19.3547L19.4926 10.5639C21.5989 11.7414 23.9569 12.2369 26.2667 12.0715C28.5739 11.9051 30.8348 11.0761 32.7498 9.6084L32.9113 9.48453H35.208V3.3258H32.2714L20.3365 0.128252C20.164 0.0822911 20.0056 0.0485867 19.8497 0.0284516C19.7014 0.00919186 19.5394 0 19.3538 0H16.1781C15.599 0 15.0637 0.112931 14.5844 0.33398C14.102 0.555905 13.6674 0.889448 13.2923 1.32804L9.04155 6.30011ZM14.4925 6.30011H20.4901C20.6276 6.30011 20.7716 6.26597 20.8963 6.20337C20.3076 5.92236 19.6716 5.69693 19.0229 5.53366C18.1501 5.31349 17.2628 5.20843 16.4434 5.2312C15.9637 5.30386 15.4594 5.5411 15.002 5.87246C14.8225 6.00246 14.6509 6.14647 14.4925 6.30011ZM11.3142 7.49509H1.32848C0.961672 7.49509 0.62988 7.64435 0.390447 7.88335C0.149263 8.12453 0 8.45676 0 8.82357V9.62722H10.9351C10.8852 9.42281 10.8581 9.20964 10.8581 8.99078C10.8581 8.43837 11.0266 7.92318 11.3142 7.49509ZM11.5812 10.8222H0V13.129H23.2994C21.8374 12.8952 20.4008 12.4138 19.054 11.6819H13.5492C12.8094 11.6819 12.1354 11.3781 11.6482 10.8914L11.5812 10.8222ZM17.2225 16.5638C17.6423 16.5638 18.0371 16.675 18.379 16.8693C18.4841 16.8093 18.593 16.7581 18.706 16.7152C18.966 16.6176 19.2453 16.5638 19.5341 16.5638C20.1802 16.5638 20.7676 16.8273 21.1927 17.2519C21.6194 17.6791 21.883 18.2665 21.883 18.9126C21.883 19.5604 21.6194 20.1487 21.1949 20.5733C20.7676 20.9974 20.1807 21.261 19.5341 21.261C19.2457 21.261 18.966 21.2076 18.706 21.1095C18.593 21.0666 18.4832 21.0154 18.379 20.9563C18.0367 21.1498 17.6423 21.261 17.2225 21.261C16.5765 21.261 15.9899 20.9979 15.5645 20.5733C15.1372 20.1448 14.8742 19.5587 14.8742 18.9126C14.8742 18.2661 15.1377 17.6791 15.5618 17.2541C15.9864 16.8273 16.5747 16.5638 17.2225 16.5638ZM19.282 17.7859C19.4663 18.1212 19.5714 18.5051 19.5714 18.9126C19.5714 19.3205 19.4667 19.7049 19.2833 20.0397C19.3634 20.0568 19.447 20.066 19.5341 20.066C19.8537 20.066 20.143 19.9369 20.3509 19.7289C20.558 19.5201 20.688 19.2308 20.688 18.9126C20.688 18.5935 20.5589 18.3037 20.3509 18.0958C20.143 17.8879 19.8532 17.7588 19.5341 17.7588C19.4466 17.7588 19.3617 17.7688 19.282 17.7859ZM18.0393 18.0958C17.8314 17.8879 17.5412 17.7588 17.2225 17.7588C16.9043 17.7588 16.615 17.8888 16.4071 18.0967C16.1983 18.3037 16.0692 18.5931 16.0692 18.9126C16.0692 19.2326 16.1978 19.5215 16.4044 19.7281C16.6137 19.9373 16.9026 20.066 17.2225 20.066C17.5421 20.066 17.8314 19.9369 18.0393 19.7289C18.2464 19.5201 18.3759 19.2308 18.3759 18.9126C18.3759 18.5935 18.2472 18.3037 18.0393 18.0958ZM0 14.3244V22.0445C0 22.4091 0.150138 22.7418 0.390447 22.9821C0.631193 23.2224 0.96386 23.3725 1.32848 23.3725H22.2541C22.6188 23.3725 22.9514 23.2224 23.1917 22.9821C23.4325 22.7418 23.5822 22.4091 23.5822 22.0445V14.3244H0Z" fill="#5431FB"/>
</g>
</svg>
