<svg width="51" height="51" viewBox="0 0 51 51" fill="none" xmlns="http://www.w3.org/2000/svg">
<g id="qr-code-icon 1" clip-path="url(#clip0_81_1170)">
<g id="Group">
<path id="Vector" fill-rule="evenodd" clip-rule="evenodd" d="M0.074707 0H18.5979V18.4755H0.074707V0ZM46.2769 46.3447H51V51H46.2769V46.3447ZM37.2 46.3364H41.9231V50.7714H37.2H37.1958H32.4768V41.702H37.0505V37.1049H41.7031V27.9399H46.4263V32.4455H50.9253V37.1007H46.4263V41.756H41.7737H41.7031H37.2V46.3364ZM23.1758 37.0301H27.7495V32.3748H23.3252V27.7196H27.7495V23.0643H23.2505V27.7196H18.5232V23.0643H23.1716V9.23985H27.8948V23.0601H32.4685V27.7154H36.9675V23.0601H41.6907V27.7154H37.2V32.3707H32.4768V41.5357H27.8989V50.7756H23.1758V37.0301ZM46.198 23.0601H50.9211V27.7154H46.198V23.0601ZM9.30103 23.0601H14.0242V27.7154H9.30103V23.0601ZM0.074707 23.0601H4.79785V27.7154H0.074707V23.0601ZM23.1758 0H27.8989V4.65526H23.1758V0ZM0 32.4455H18.5232V50.921H0V32.4455ZM4.49902 36.9345H14.0242V46.4362H4.49902V36.9345ZM32.3979 0H50.9211V18.4755H32.3979V0ZM36.9011 4.489H46.4263V13.9907H36.9011V4.489ZM4.57373 4.489H14.0989V13.9907H4.57373V4.489Z" fill="#125878"/>
</g>
</g>
<defs>
<clipPath id="clip0_81_1170">
<rect width="51" height="51" fill="white"/>
</clipPath>
</defs>
</svg>
