<svg width="25" height="25" viewBox="0 0 25 25" fill="none" xmlns="http://www.w3.org/2000/svg">
<path d="M17.275 8.97119H6.74096C6.65457 9.50352 6.23313 9.9247 5.70053 10.0111V14.0154C6.23313 14.1015 6.65457 14.5229 6.74096 15.0553H17.275C17.3611 14.5229 17.7826 14.1015 18.3149 14.0154V10.0111C17.7826 9.92497 17.3611 9.50352 17.275 8.97119ZM12.008 14.1626C10.8228 14.1626 9.85876 13.1983 9.85876 12.0134C9.85876 10.8284 10.823 9.86414 12.008 9.86414C13.1929 9.86414 14.1567 10.8284 14.1567 12.0134C14.1567 13.1983 13.1929 14.1626 12.008 14.1626Z" fill="#B15959"/>
<path d="M12.008 10.2678C11.0453 10.2678 10.2625 11.051 10.2625 12.0134C10.2625 12.9757 11.0456 13.7589 12.008 13.7589C12.9704 13.7589 13.753 12.9757 13.753 12.0134C13.753 11.051 12.9704 10.2678 12.008 10.2678Z" fill="#B15959"/>
<path d="M19.4693 7.21143H8.38491C8.38411 7.21143 8.3833 7.21143 8.38222 7.21143H5.62882C5.62613 7.21143 5.62344 7.21143 5.62075 7.21143H4.54587C4.21188 7.21143 3.94034 7.48297 3.94034 7.81695V16.2101C3.94034 16.5441 4.21188 16.8156 4.54587 16.8156H18.3834C18.388 16.8156 18.3923 16.8156 18.3968 16.8156H19.4693C19.8033 16.8156 20.0748 16.5441 20.0748 16.2101V7.81695C20.0748 7.48297 19.803 7.21143 19.4693 7.21143ZM18.7185 14.2011C18.7185 14.3125 18.628 14.4029 18.5166 14.4029C18.0456 14.4029 17.6624 14.7862 17.6624 15.2571C17.6624 15.3686 17.572 15.459 17.4606 15.459H6.55514C6.44373 15.459 6.3533 15.3686 6.3533 15.2571C6.3533 14.7862 5.9698 14.4029 5.49856 14.4029C5.38715 14.4029 5.29672 14.3125 5.29672 14.2011V9.82542C5.29672 9.714 5.38715 9.62358 5.49856 9.62358C5.9698 9.62358 6.3533 9.24035 6.3533 8.76938C6.3533 8.65796 6.44373 8.56754 6.55514 8.56754H17.4603C17.5717 8.56754 17.6621 8.65796 17.6621 8.76938C17.6621 9.24035 18.0454 9.62358 18.5163 9.62358C18.6278 9.62358 18.7182 9.714 18.7182 9.82542L18.7185 14.2011Z" fill="#B15959"/>
<path d="M20.5026 3.51852C18.2336 1.24954 15.2167 0 12.008 0C8.7992 0 5.78205 1.24954 3.51307 3.51852C-1.17102 8.20262 -1.17102 15.8242 3.51307 20.5083C5.78205 22.7773 8.79893 24.0268 12.008 24.0268C15.0143 24.0268 17.852 22.9299 20.0642 20.9257C20.0663 20.9238 20.0685 20.9219 20.0706 20.9201C20.2176 20.7866 20.3618 20.6496 20.5028 20.5083C20.6379 20.3732 20.7687 20.2351 20.8966 20.0949C20.9162 20.0731 20.9356 20.0511 20.955 20.0295C22.9365 17.823 24.0216 15.0018 24.0216 12.0134C24.0216 8.80438 22.7718 5.7875 20.5026 3.51852ZM20.2407 18.8403C20.2044 18.8839 20.1514 18.9102 20.0949 18.9129C20.0916 18.9129 20.0887 18.9132 20.0854 18.9132C20.0321 18.9132 19.9807 18.8919 19.9428 18.854L18.3081 17.2191H16.1194L18.8485 19.9482C18.8886 19.9883 18.9102 20.0435 18.9075 20.1003C18.9051 20.1568 18.8787 20.2098 18.8348 20.2462C16.8355 21.9077 14.4163 22.7288 12.0058 22.7288C9.26559 22.7288 6.53614 21.6688 4.44451 19.5769C0.512613 15.645 0.22492 9.45835 3.7752 5.18655C3.81153 5.14295 3.86455 5.11658 3.92106 5.11389C3.98135 5.11146 4.03302 5.13272 4.07312 5.17282L5.70804 6.80775H7.89656L5.16737 4.07857C5.12727 4.03847 5.10574 3.9833 5.10844 3.92651C5.11086 3.87 5.13723 3.81698 5.1811 3.78065C9.4529 0.23037 15.6395 0.517794 19.5714 4.44996C23.5033 8.38185 23.7913 14.5685 20.2407 18.8403Z" fill="#B15959"/>
</svg>
