<svg width="10" height="10" viewBox="0 0 10 10" fill="none" xmlns="http://www.w3.org/2000/svg">
<g id="Group">
<path id="Vector" fill-rule="evenodd" clip-rule="evenodd" d="M7.5 3.5H6.81L6.99 2.598L6.01 2.402L5.79 3.5H4.81L4.99 2.598L4.01 2.402L3.79 3.5H2.5V4.5H3.5905L3.39 5.5H2.5V6.5H3.19L3.01 7.402L3.99 7.598L4.21 6.5H5.19L5.01 7.402L5.99 7.598L6.21 6.5H7.5V5.5H6.4095L6.61 4.5H7.5V3.5ZM10 5C10 7.761 7.761 10 5 10C2.239 10 0 7.761 0 5C0 2.239 2.239 0 5 0C7.761 0 10 2.239 10 5ZM4.61 4.5H5.5905L5.39 5.5H4.4095L4.61 4.5Z" fill="#125878"/>
</g>
</svg>
