<svg width="36" height="33" viewBox="0 0 36 33" fill="none" xmlns="http://www.w3.org/2000/svg">
<path d="M30.7485 18.5586C30.9879 18.4601 31.2355 18.3762 31.4978 18.3262V13.9722C30.0308 13.6924 28.8728 12.6077 28.574 11.2343H7.4231C7.12427 12.6077 5.96558 13.6924 4.49854 13.9722V18.3262C5.96558 18.606 7.12427 19.6907 7.4231 21.0641H21.7485V18.3745C21.7485 16.0655 23.6206 14.1652 26.0098 14.0486C26.0903 14.0445 26.1716 14.0424 26.2522 14.0424C28.7314 14.0424 30.7485 15.9322 30.7485 18.2552V18.5586ZM17.9982 18.9592C16.3404 18.9592 14.9965 17.701 14.9965 16.149C14.9965 14.597 16.3404 13.3389 17.9982 13.3389C19.656 13.3389 20.9999 14.597 20.9999 16.149C20.9999 17.701 19.656 18.9592 17.9982 18.9592Z" fill="#AA59B1"/>
<path d="M34.5 7.01886H1.5C0.667511 7.01886 0 7.6508 0 8.42312V23.87C0 24.6494 0.667511 25.2743 1.5 25.2743H21.7488V22.4683H6.74881C6.33426 22.4683 5.99881 22.154 5.99881 21.7662C5.99881 20.6047 4.98953 19.6598 3.74881 19.6598C3.33426 19.6598 2.99881 19.3454 2.99881 18.9577V13.3406C2.99881 12.9529 3.33426 12.6385 3.74881 12.6385C4.98953 12.6385 5.99881 11.6936 5.99881 10.5321C5.99881 10.1443 6.33426 9.82996 6.74881 9.82996H29.2488C29.6634 9.82996 29.9988 10.1443 29.9988 10.5321C29.9988 11.6936 31.0081 12.6385 32.2481 12.6385C32.6626 12.6385 32.9981 12.9529 32.9981 13.3406V18.9577C32.9981 19.3454 32.6626 19.6598 32.2481 19.6598C31.6702 19.6598 31.1477 19.8708 30.7488 20.2076V25.2743H34.5C35.325 25.2743 36 24.6494 36 23.87V8.42312C36 7.6508 35.325 7.01886 34.5 7.01886Z" fill="#AA59B1"/>
<path d="M29.249 3.51059C29.249 2.3473 28.2417 1.40424 26.999 1.40424C25.7564 1.40424 24.749 2.3473 24.749 3.51059V5.61476H29.249V3.51059Z" fill="#AA59B1"/>
<path d="M23.998 2.10635C23.998 0.943062 22.9907 0 21.748 0C20.5054 0 19.498 0.943061 19.498 2.10635V5.61479H23.998V2.10635Z" fill="#AA59B1"/>
<path d="M18.7676 4.16786C18.7676 3.00452 17.7602 2.06146 16.5176 2.06146C15.2749 2.06146 14.2676 3.00452 14.2676 4.16786V5.61481H18.7676V4.16786Z" fill="#AA59B1"/>
<path d="M11.2492 4.21277C10.2718 4.21277 9.44829 4.79966 9.1377 5.61476H13.3607C13.0501 4.79966 12.2265 4.21277 11.2492 4.21277Z" fill="#AA59B1"/>
<path d="M26.0886 15.4508C24.4963 15.5286 23.249 16.8129 23.249 18.3745V25.2769C23.249 26.0513 22.5759 26.6811 21.749 26.6811H8.99902V28.085C8.99902 30.7952 11.3545 33 14.249 33H23.999C26.8936 33 29.249 30.7952 29.249 28.085V18.2552C29.249 16.6565 27.8289 15.3647 26.0886 15.4508Z" fill="#AA59B1"/>
</svg>
