<svg width="24" height="25" viewBox="0 0 24 25" fill="none" xmlns="http://www.w3.org/2000/svg">
<path d="M23.1371 9.22965C23.1237 8.496 22.8094 7.79758 22.263 7.28694C21.7165 6.77629 20.9822 6.49491 20.2205 6.50425L6.80535 6.7073L6.97299 17.783L20.3881 17.5799C21.1498 17.5662 21.8752 17.2627 22.406 16.7358C22.9368 16.2088 23.2297 15.5012 23.2209 14.7675L23.1371 9.22965ZM15.5132 12.1146C15.522 12.8483 15.2291 13.5559 14.6983 14.0829C14.1675 14.6098 13.4421 14.9133 12.6804 14.927C12.3531 14.9339 12.0274 14.8825 11.7197 14.7754C11.3152 14.6445 10.9464 14.4281 10.6402 14.142C10.3341 13.8559 10.0983 13.5074 9.95029 13.122L8.81959 13.1391C8.56545 13.1429 8.32025 13.0494 8.13793 12.879C7.95561 12.7086 7.8511 12.4754 7.84739 12.2306C7.84369 11.9858 7.94109 11.7496 8.11817 11.5737C8.29525 11.3979 8.53751 11.297 8.79165 11.2932L9.92235 11.276C10.0587 10.8863 10.2837 10.5308 10.5811 10.2356C10.8785 9.94034 11.2406 9.71287 11.6409 9.56983C11.9453 9.45343 12.2693 9.39219 12.5966 9.38919C12.8507 9.38535 13.0959 9.4789 13.2783 9.64927C13.4606 9.81964 13.5651 10.0529 13.5688 10.2977C13.5725 10.5424 13.4751 10.7787 13.298 10.9545C13.1209 11.1304 12.8787 11.2313 12.6245 11.2351C12.435 11.238 12.2506 11.2949 12.0945 11.3987C11.9385 11.5025 11.8179 11.6486 11.7479 11.8183C11.6779 11.9881 11.6617 12.1739 11.7014 12.3524C11.7411 12.5309 11.8349 12.694 11.9708 12.821C12.1068 12.9481 12.2789 13.0334 12.4653 13.0662C12.6517 13.099 12.8441 13.0778 13.0181 13.0053C13.1921 12.9328 13.34 12.8122 13.443 12.6588C13.546 12.5054 13.5995 12.3262 13.5967 12.1436C13.5921 11.4942 13.8247 10.8636 14.2536 10.3621C14.6826 9.86057 15.2808 9.52004 15.9435 9.40002C16.6063 9.28 17.2915 9.38812 17.8794 9.70549C18.4673 10.0229 18.9204 10.5293 19.1596 11.1362L20.2903 11.1191C20.5445 11.1153 20.7897 11.2088 20.972 11.3792C21.1543 11.5496 21.2588 11.7828 21.2625 12.0276C21.2662 12.2724 21.1688 12.5086 20.9917 12.6845C20.8147 12.8603 20.5724 12.9612 20.3183 12.965L19.1876 12.9822C18.998 13.5238 18.6393 13.9958 18.1605 14.3336C17.6817 14.6714 17.1064 14.8584 16.5133 14.869C16.2592 14.8729 16.014 14.7793 15.8317 14.6089C15.6493 14.4386 15.5448 14.2053 15.5411 13.9605C15.5374 13.7158 15.6348 13.4795 15.8119 13.3037C15.989 13.1278 16.2312 13.0269 16.4854 13.0231C16.6749 13.0202 16.8593 12.9633 17.0154 12.8595C17.1714 12.7557 17.2921 12.6096 17.362 12.4399C17.432 12.2701 17.4482 12.0843 17.4085 11.9058C17.3688 11.7273 17.2751 11.5642 17.1391 11.4372C17.0031 11.3101 16.8311 11.2248 16.6446 11.192C16.4582 11.1592 16.2658 11.1804 16.0918 11.2529C15.9178 11.3254 15.7699 11.446 15.6669 11.5994C15.5639 11.7528 15.5104 11.932 15.5132 12.1146Z" fill="white"/>
<path d="M0.0698414 4.96282L0.293368 19.7304C0.311894 20.9543 0.834438 22.1205 1.74605 22.9723C2.65766 23.8242 3.88365 24.2919 5.15434 24.2727L7.07078 24.2437C8.34147 24.2245 9.55275 23.7198 10.4382 22.8407C11.3236 21.9617 11.8106 20.7802 11.7921 19.5563L7.00093 19.6288L7.0149 20.5518C7.01861 20.7966 6.92121 21.0329 6.74412 21.2087C6.56704 21.3845 6.32479 21.4854 6.07065 21.4893C5.81651 21.4931 5.57131 21.3996 5.38899 21.2292C5.20667 21.0588 5.10216 20.8256 5.09846 20.5808L4.84699 3.96733C4.84328 3.72254 4.94069 3.48625 5.11777 3.31044C5.29485 3.13463 5.5371 3.0337 5.79124 3.02985C6.04538 3.02601 6.29058 3.11956 6.4729 3.28993C6.65522 3.4603 6.75973 3.69353 6.76344 3.93832L6.77741 4.86129L11.5685 4.78877C11.55 3.56484 11.0275 2.39867 10.1158 1.54682C9.20424 0.694963 7.97824 0.227203 6.70755 0.246436L4.79111 0.275444C3.52042 0.294678 2.30914 0.799329 1.42373 1.67838C0.538325 2.55744 0.0513155 3.73888 0.0698414 4.96282Z" fill="white"/>
</svg>
